<?xml version="1.0" encoding="UTF-8" standalone="no"?>
<svg
   width="100"
   height="100"
   viewBox="0 0 26.458333 26.458334"
   version="1.1"
   id="svg8"
   inkscape:version="1.1.2 (b8e25be833, 2022-02-05)"
   sodipodi:docname="filosofia.svg"
   xmlns:inkscape="http://www.inkscape.org/namespaces/inkscape"
   xmlns:sodipodi="http://sodipodi.sourceforge.net/DTD/sodipodi-0.dtd"
   xmlns="http://www.w3.org/2000/svg"
   xmlns:svg="http://www.w3.org/2000/svg"
   xmlns:rdf="http://www.w3.org/1999/02/22-rdf-syntax-ns#"
   xmlns:cc="http://creativecommons.org/ns#"
   xmlns:dc="http://purl.org/dc/elements/1.1/">
  <defs
     id="defs2">
    <inkscape:path-effect
       effect="spiro"
       id="path-effect15032"
       is_visible="true"
       lpeversion="1" />
  </defs>
  <sodipodi:namedview
     id="base"
     pagecolor="#ffffff"
     bordercolor="#666666"
     borderopacity="1.0"
     inkscape:pageopacity="0.0"
     inkscape:pageshadow="2"
     inkscape:zoom="2.8284271"
     inkscape:cx="62.225397"
     inkscape:cy="60.634407"
     inkscape:document-units="cm"
     inkscape:current-layer="layer3"
     inkscape:document-rotation="0"
     showgrid="false"
     units="px"
     inkscape:pagecheckerboard="true"
     inkscape:showpageshadow="false"
     width="145px"
     inkscape:window-width="1920"
     inkscape:window-height="1017"
     inkscape:window-x="-8"
     inkscape:window-y="-8"
     inkscape:window-maximized="1" />
  <metadata
     id="metadata5">
    <rdf:RDF>
      <cc:Work
         rdf:about="">
        <dc:format>image/svg+xml</dc:format>
        <dc:type
           rdf:resource="http://purl.org/dc/dcmitype/StillImage" />
      </cc:Work>
    </rdf:RDF>
  </metadata>
  <g
     inkscape:groupmode="layer"
     id="layer3"
     inkscape:label="fundo">
    <g
       id="g23237"
       transform="matrix(0.75804016,0,0,0.75804016,217.42127,11.402147)"
       style="stroke-width:1.31919">
      <g
         aria-label="I"
         id="text17499"
         style="font-style:italic;font-weight:bold;font-size:50.8px;line-height:1.25;font-family:Ubuntu;-inkscape-font-specification:'Ubuntu Bold Italic';text-align:center;text-anchor:middle;stroke-width:0.349036">
        <path
           id="path23239"
           style="font-style:normal;font-weight:normal;font-family:'Times New Roman';-inkscape-font-specification:'Times New Roman, ';stroke-width:1"
           d="M 29.349609 1.8164062 L 29.349609 4.4472656 L 32.759766 4.4472656 C 35.033877 4.4472656 37.214211 5.0152845 39.298828 6.1523438 C 40.76754 7.0051401 41.739129 8.0225939 42.212891 9.2070312 C 42.828711 10.77027 43.136633 13.992352 43.136719 18.871094 C 35.581113 19.623088 28.592178 21.839685 22.175781 25.53125 C 12.336222 31.179825 7.3151864 38.907113 7.1113281 48.712891 C 6.9862557 54.728996 8.7572551 60.200969 12.425781 65.130859 C 16.093301 70.10812 21.608666 74.04478 28.972656 76.939453 C 33.718456 78.80495 38.44019 80.085343 43.136719 80.789062 L 43.136719 81.126953 C 43.136719 86.90701 42.566743 90.554232 41.429688 92.070312 C 39.629339 94.391811 36.739469 95.552734 32.759766 95.552734 L 29.349609 95.552734 L 29.349609 98.183594 L 70.638672 98.183594 L 70.638672 95.552734 L 67.15625 95.552734 C 64.88212 95.552734 62.726683 94.984717 60.689453 93.847656 C 59.173373 92.994862 58.178859 91.977406 57.705078 90.792969 C 57.093034 89.239314 56.785088 86.043463 56.78125 81.214844 C 64.728682 80.526464 71.947464 78.188622 78.435547 74.193359 C 87.86671 68.349758 92.685782 60.501587 92.890625 50.648438 C 93.002895 45.248154 91.342094 40.107867 87.908203 35.228516 C 84.533238 30.349956 79.195677 26.368521 71.894531 23.285156 C 66.899455 21.192025 61.861382 19.798689 56.78125 19.101562 L 56.78125 18.873047 C 56.78125 13.09299 57.372198 9.4457678 58.556641 7.9296875 C 60.35699 5.6081908 63.223915 4.4472656 67.15625 4.4472656 L 70.638672 4.4472656 L 70.638672 1.8164062 L 29.349609 1.8164062 z M 56.78125 31.898438 C 56.86909 31.89941 56.954953 31.897254 57.042969 31.898438 C 64.347253 31.996643 70.310602 32.858569 74.931641 34.484375 C 79.552679 36.110181 82.749557 38.191353 84.523438 40.726562 C 86.355239 43.309935 87.245555 45.856529 87.193359 48.367188 C 87.085029 53.577987 84.168205 57.82793 78.443359 61.115234 C 72.665312 64.480312 65.443094 66.632141 56.78125 67.576172 L 56.78125 31.898438 z M 43.136719 32.693359 L 43.136719 68.09375 C 32.302711 67.844208 24.634855 66.254103 20.152344 63.316406 C 15.501945 60.268681 13.224785 56.446541 13.320312 51.851562 C 13.448339 45.693344 17.823263 40.778351 26.443359 37.103516 C 31.469038 34.988388 37.035985 33.521331 43.136719 32.693359 z "
           transform="matrix(0.34903604,0,0,0.34903604,-286.82025,-15.041613)" />
      </g>
      <g
         aria-label="o"
         transform="matrix(-0.01864075,0.89663787,-1.1149658,-0.01499059,0,0)"
         id="text22255"
         style="font-style:italic;font-weight:bold;font-size:56.6482px;line-height:1.25;font-family:Ubuntu;-inkscape-font-specification:'Ubuntu Bold Italic';text-align:center;text-anchor:middle;stroke-width:0.349036" />
    </g>
  </g>
</svg>
