<?xml version="1.0" encoding="UTF-8" standalone="no"?>
<svg
   width="100"
   height="100"
   viewBox="0 0 26.458333 26.458334"
   version="1.1"
   id="svg8"
   inkscape:version="1.1.2 (b8e25be833, 2022-02-05)"
   sodipodi:docname="meditar.svg"
   xmlns:inkscape="http://www.inkscape.org/namespaces/inkscape"
   xmlns:sodipodi="http://sodipodi.sourceforge.net/DTD/sodipodi-0.dtd"
   xmlns="http://www.w3.org/2000/svg"
   xmlns:svg="http://www.w3.org/2000/svg"
   xmlns:rdf="http://www.w3.org/1999/02/22-rdf-syntax-ns#"
   xmlns:cc="http://creativecommons.org/ns#"
   xmlns:dc="http://purl.org/dc/elements/1.1/">
  <defs
     id="defs2">
    <inkscape:path-effect
       effect="spiro"
       id="path-effect15032"
       is_visible="true"
       lpeversion="1" />
  </defs>
  <sodipodi:namedview
     id="base"
     pagecolor="#ffffff"
     bordercolor="#666666"
     borderopacity="1.0"
     inkscape:pageopacity="0.0"
     inkscape:pageshadow="2"
     inkscape:zoom="5.6568543"
     inkscape:cx="88.918677"
     inkscape:cy="52.94462"
     inkscape:document-units="cm"
     inkscape:current-layer="layer1"
     inkscape:document-rotation="0"
     showgrid="false"
     units="px"
     inkscape:pagecheckerboard="true"
     inkscape:showpageshadow="false"
     width="145px"
     inkscape:window-width="1920"
     inkscape:window-height="1017"
     inkscape:window-x="-8"
     inkscape:window-y="-8"
     inkscape:window-maximized="1" />
  <metadata
     id="metadata5">
    <rdf:RDF>
      <cc:Work
         rdf:about="">
        <dc:format>image/svg+xml</dc:format>
        <dc:type
           rdf:resource="http://purl.org/dc/dcmitype/StillImage" />
      </cc:Work>
    </rdf:RDF>
  </metadata>
  <g
     inkscape:groupmode="layer"
     id="layer3"
     inkscape:label="fundo"
     style="display:inline" />
  <g
     inkscape:label="Layer 1"
     inkscape:groupmode="layer"
     id="layer1">
    <rect
       style="opacity:1;fill:none;fill-opacity:1;fill-rule:evenodd;stroke:#ffffff;stroke-width:1.05833;stroke-linecap:round;stroke-linejoin:round;stroke-miterlimit:4;stroke-dasharray:none;stroke-opacity:1;stop-color:#000000"
       id="rect14700"
       width="8.9802551"
       height="16.136398"
       x="73.619392"
       y="144.99371"
       ry="3.1675386" />
    <path
       style="opacity:1;fill:#000000;fill-opacity:1;fill-rule:evenodd;stroke:#ffffff;stroke-width:0;stroke-linecap:round;stroke-linejoin:round;stroke-miterlimit:4;stroke-dasharray:none;stroke-opacity:1;stop-color:#000000"
       d=""
       id="path15401"
       transform="scale(0.26458333)" />
    <path
       style="opacity:1;fill:#000000;fill-opacity:1;fill-rule:evenodd;stroke:#ffffff;stroke-width:0;stroke-linecap:round;stroke-linejoin:round;stroke-miterlimit:4;stroke-dasharray:none;stroke-opacity:1;stop-color:#000000"
       d=""
       id="path15479"
       transform="scale(0.26458333)" />
    <g
       id="g27052">
      <path
         id="path25742"
         style="fill-rule:evenodd;stroke:#00b900;stroke-width:0;stroke-linecap:round;stroke-linejoin:round;stop-color:#000000"
         d="M 16.215638,4.4107075 A 3.2598176,3.2598176 0 0 1 12.955821,7.670525 3.2598176,3.2598176 0 0 1 9.6960034,4.4107075 3.2598176,3.2598176 0 0 1 12.955821,1.1508899 3.2598176,3.2598176 0 0 1 16.215638,4.4107075 Z" />
      <path
         id="path26387"
         style="fill:#000000;fill-opacity:1;fill-rule:evenodd;stroke:none;stroke-width:0;stroke-linecap:round;stroke-linejoin:round;stroke-miterlimit:4;stroke-dasharray:none;stroke-opacity:1;stop-color:#000000"
         d="M 49.949219 29.808594 C 45.938796 29.802318 42.780419 30.166402 39.150391 31.054688 C 36.008175 31.823614 31.879162 33.361749 29.330078 34.712891 L 28.318359 35.25 L 23.943359 47.980469 C 21.53732 54.98269 19.45103 61.044548 19.306641 61.451172 C 18.155196 64.69384 19.182253 66.969635 22.15625 67.763672 C 23.116311 68.020037 25.458115 68.104744 27.005859 67.9375 C 28.728897 67.751302 30.852088 67.353361 33.103516 66.796875 C 34.122755 66.544924 35.005224 66.339844 35.064453 66.339844 C 35.128323 66.339844 35.171207 67.161568 35.169922 68.357422 L 35.169922 70.375 L 34.123047 71.056641 C 32.807232 71.913974 29.185625 74.488092 27.324219 75.888672 C 21.077928 80.588582 16.75278 84.689351 15.097656 87.482422 C 14.192641 89.009665 14.025094 90.154069 14.550781 91.208984 C 14.875344 91.860291 15.684974 92.649484 16.505859 93.113281 C 18.546676 94.266321 22.477278 95.205931 26.646484 95.539062 C 28.230681 95.665714 33.921875 95.691661 33.921875 95.572266 C 33.921875 95.520637 33.796152 95.361061 33.642578 95.216797 C 33.152378 94.75628 32.304612 93.38745 31.957031 92.496094 C 30.876005 89.723916 31.887541 87.088434 34.787109 85.125 C 36.48273 83.976825 38.458631 83.16727 44.4375 81.169922 C 49.368574 79.522615 52.681202 78.615234 53.775391 78.615234 C 54.037603 78.615234 56.414654 79.430013 60.115234 80.787109 C 63.371105 81.981153 66.040135 82.965161 66.048828 82.974609 C 66.056992 82.984058 66.038805 83.158141 66.007812 83.361328 L 65.951172 83.732422 L 65.253906 83.732422 C 63.317677 83.734848 56.720618 84.338898 53.359375 84.822266 C 44.882995 86.041201 39.590506 88.001179 38.394531 90.361328 C 38.145082 90.853415 38.108212 91.044472 38.15625 91.642578 C 38.230457 92.567005 38.644853 93.317568 39.662109 94.375 L 40.458984 95.203125 L 60.087891 95.330078 L 79.71875 95.457031 L 80.666016 95.070312 C 82.80804 94.197019 84.524197 92.732383 85.287109 91.126953 C 85.655417 90.351859 85.700864 90.154934 85.738281 89.130859 C 85.767875 88.321296 85.725302 87.782072 85.589844 87.255859 C 85.20581 85.76388 84.040767 83.667396 82.638672 81.941406 C 82.125499 81.3097 81.646842 80.964594 78.310547 78.818359 C 73.41017 75.665946 67.674708 71.854627 66.332031 70.859375 L 65.265625 70.068359 L 65.341797 69.027344 C 65.530815 66.451395 65.535218 66.428592 65.796875 66.501953 C 69.658505 67.584671 72.674539 68.12846 75.433594 68.236328 C 78.054337 68.338776 79.5927 68.036816 80.570312 67.230469 C 81.469311 66.48899 81.641151 65.472801 81.150391 63.779297 C 80.42406 61.272858 76.499591 49.601721 73.220703 40.195312 L 71.376953 34.908203 L 70.695312 34.542969 C 68.703324 33.472333 64.359663 31.913657 61.267578 31.160156 C 57.361368 30.208264 54.072377 29.814906 49.949219 29.808594 z M 49.835938 42.652344 L 54.132812 49.90625 L 58.431641 57.160156 L 50 57.253906 L 41.568359 57.347656 L 45.703125 50 L 49.835938 42.652344 z "
         transform="scale(0.26458333)" />
    </g>
  </g>
</svg>
