<svg xmlns="http://www.w3.org/2000/svg" id="Layer_1" x="0" y="0" version="1.1" viewBox="0 0 50 50" xml:space="preserve"><style>.st2{fill:#031326}</style><path fill="#ecc158" d="M1.1 33.4v8.9l26.4-8.9 20.5-7V5.2H1.1z"/><path fill="#f0cd77" d="M45.1 6L2 21.6v-15L45.1 6z"/><path d="M.5 4v42h32.3c.7 0 1.3-.6 1.3-1.3 0-.7-.6-1.3-1.3-1.3h-2.4v-23h16.4v4.9c0 .7.6 1.3 1.3 1.3.7 0 1.3-.6 1.3-1.3V4H.5zm2.6 2.6h11.7v11.2H3.1V6.6zm24.7 13.8V32H3.1V20.4h24.7zM3.1 34.6h11.7v8.8H3.1v-8.8zm14.3 8.8v-8.8h10.4v8.8H17.4zm29.4-25.6H17.4V6.6h29.4v11.2z" class="st2"/><path d="M42.2 45.1c-.2 0-.4 0-.7-.1l-5.1-2c-.7-.3-1.2-.9-1.2-1.6l-.7-10.8c0-.5.2-1 .5-1.4.4-.4.8-.6 1.4-.6h11.3c.5 0 1 .2 1.4.6.3.4.5.9.5 1.4l-.7 10.8c0 .4-.4.8-.8.7-.4 0-.8-.4-.7-.8l.6-10.8c0-.1 0-.2-.1-.2 0 0-.1-.1-.2-.1H36.4c-.1 0-.2.1-.2.1s-.1.1-.1.2l.7 10.8c0 .1.1.2.2.3l5.2 1.9h.2l1.4-.5c.4-.1.9.1 1 .5.1.4-.1.9-.5 1l-1.4.5c-.2 0-.5.1-.7.1z" class="st2"/><path d="M38.1 32.6h7.8l-.1 1.6-3.3 1.4h3.1l-.3 4.6-3.2.8-3.2-.8-.2-2.3h1.4l.1 1.2 1.9.4 1.7-.6.1-1.9-5.3.1-.2-1.5 3.5-1.5-3.6-.1z" class="st2"/></svg>