<svg xmlns="http://www.w3.org/2000/svg" id="Layer_1" x="0" y="0" version="1.1" viewBox="0 0 50 50" xml:space="preserve"><style>.st2{fill:#031326}</style><path fill="#bf94f7" d="M32 10l3.9 4.3L7.1 24v-4.1l2.2-4.1 5-5.1L16 9.5l7.5-1.3z"/><path fill="#a475ef" d="M40.2 21.8L10.1 34l-2.5-3.9-1-6.5 28.2-10.8.6.6z"/><path d="M49.3 40.7l-3.4-3.4c-.2-.2-.6-.2-.8 0s-.2.6 0 .8l2.6 2.6h-9.6c-.3 0-.6.3-.6.6s.3.6.6.6h9.6l-2.6 2.6c-.2.2-.2.6 0 .8.1.1.3.2.4.2s.3-.1.4-.2l3.4-3.4c.1-.1.2-.3.2-.5 0-.4 0-.6-.2-.7zm-1.1.4c0 .1 0 .1 0 0zm-5-13.3c.1.1.3.2.4.2s.3-.1.4-.2c.2-.2.2-.6 0-.8l-3.4-3.4c-.1-.1-.3-.2-.5-.2s-.4 0-.5.2L36.1 27c-.2.2-.2.6 0 .8.1.1.3.2.4.2s.3-.1.4-.2l2.1-2.1c-.6 8.1-7.4 14.6-15.6 14.6h-22c-.5 0-.9.4-.9.9s.4.9.9.9h22c9.4 0 17-7.4 17.4-16.7l2.4 2.4zm-37.3 7l3.9.8v.1l.8.2h.1c.1 0 .3-.1.4-.2.2-.1.3-.2.3-.4l1-4.8c.1-.3-.1-.6-.5-.7-.3-.1-.6.1-.7.5l-.7 3.5c-1.9-2.6-2.9-5.8-2.9-9.1 0-5.3 2.6-10.2 7.1-13.1.2-.2.4-.4.4-.7 0-.5-.4-.9-.9-.9-.2 0-.3.1-.5.2-4.9 3.2-7.9 8.7-7.9 14.6 0 3.4 1 6.8 2.9 9.6L6 33.9c-.3-.1-.6.1-.7.5.1 0 .3.4.6.4zm10.5-24.7l4.1 2.6c.1.1.2.1.3.1.2 0 .4-.1.5-.3.2-.3.1-.6-.2-.8l-3-1.8c1.7-.6 3.4-.9 5.2-.9 7.3 0 13.8 5.2 15.3 12.4.1.4.4.8.9.8s.9-.4.9-.9v-.2c-1.7-8-8.9-13.8-17.1-13.8-1.7 0-3.5.3-5.1.8l1.5-2.3c.2-.3.1-.6-.2-.8-.2-.4-.5-.3-.7 0l-2.6 4.1c-.1.2-.1.3 0 .5 0 .2.1.4.2.5z" class="st2"/><path d="M22.1 35.6c-1.5 0-2.8-1.2-2.8-2.8 0-1.5 1.2-2.8 2.8-2.8s2.8 1.2 2.8 2.8c-.1 1.5-1.3 2.8-2.8 2.8zm0-4.9c-1.1 0-2.1.9-2.1 2.1 0 1.1.9 2.1 2.1 2.1 1.1 0 2.1-.9 2.1-2.1 0-1.1-1-2.1-2.1-2.1z" class="st2"/><path d="M22.1 35.9c-1.7 0-3-1.4-3-3 0-1.7 1.4-3 3-3 1.7 0 3 1.4 3 3s-1.3 3-3 3zm0-5.6c-1.4 0-2.5 1.1-2.5 2.5s1.1 2.5 2.5 2.5 2.5-1.1 2.5-2.5c0-1.3-1.2-2.5-2.5-2.5zm0 4.9c-1.3 0-2.4-1.1-2.4-2.4 0-1.3 1.1-2.4 2.4-2.4 1.3 0 2.4 1.1 2.4 2.4 0 1.3-1.1 2.4-2.4 2.4zm0-4.2c-1 0-1.8.8-1.8 1.8s.8 1.8 1.8 1.8 1.8-.8 1.8-1.8-.8-1.8-1.8-1.8zm0-9.6c-1.5 0-2.8-1.2-2.8-2.8 0-1.5 1.2-2.8 2.8-2.8s2.8 1.2 2.8 2.8c-.1 1.6-1.3 2.8-2.8 2.8zm0-4.8c-1.1 0-2.1.9-2.1 2.1 0 1.1.9 2.1 2.1 2.1 1.1 0 2.1-.9 2.1-2.1 0-1.2-1-2.1-2.1-2.1z" class="st2"/><path d="M22.1 21.7c-1.7 0-3-1.4-3-3 0-1.7 1.4-3 3-3 1.7 0 3 1.4 3 3s-1.3 3-3 3zm0-5.5c-1.4 0-2.5 1.1-2.5 2.5s1.1 2.5 2.5 2.5 2.5-1.1 2.5-2.5-1.2-2.5-2.5-2.5zm0 4.8c-1.3 0-2.4-1.1-2.4-2.4 0-1.3 1.1-2.4 2.4-2.4 1.3 0 2.4 1.1 2.4 2.4 0 1.3-1.1 2.4-2.4 2.4zm0-4.2c-1 0-1.8.8-1.8 1.8s.8 1.8 1.8 1.8 1.8-.8 1.8-1.8-.8-1.8-1.8-1.8zm6.3 9.4c-1.5 0-2.8-1.2-2.8-2.8 0-1.5 1.2-2.8 2.8-2.8 1.5 0 2.8 1.2 2.8 2.8 0 1.6-1.3 2.8-2.8 2.8zm0-4.8c-1.1 0-2.1.9-2.1 2.1 0 1.1.9 2.1 2.1 2.1 1.1 0 2.1-.9 2.1-2.1 0-1.2-.9-2.1-2.1-2.1z" class="st2"/><path d="M28.4 26.5c-1.7 0-3-1.4-3-3 0-1.7 1.4-3 3-3 1.7 0 3 1.4 3 3 0 1.7-1.3 3-3 3zm0-5.5c-1.4 0-2.5 1.1-2.5 2.5S27 26 28.4 26s2.5-1.1 2.5-2.5-1.1-2.5-2.5-2.5zm0 4.8c-1.3 0-2.4-1.1-2.4-2.4 0-1.3 1.1-2.4 2.4-2.4 1.3 0 2.4 1.1 2.4 2.4 0 1.4-1.1 2.4-2.4 2.4zm0-4.1c-1 0-1.8.8-1.8 1.8s.8 1.8 1.8 1.8 1.8-.8 1.8-1.8-.8-1.8-1.8-1.8zm-6.6-.6h.7v9.3h-.7z" class="st2"/><path d="M22.4 30.7h-.7c-.2 0-.3-.1-.3-.3v-9.3c0-.2.1-.3.3-.3h.7c.2 0 .3.1.3.3v9.3c0 .2-.1.3-.3.3zm-.4-.6l.1-8.8H22v8.8z" class="st2"/><path d="M22.4 30.3l-.7-.1c0-.2.8-4.1 4.2-6l.3.6c-3 1.6-3.8 5.4-3.8 5.5z" class="st2"/><path d="M22.4 30.6l-.7-.1c-.1 0-.1-.1-.2-.1 0-.1-.1-.1 0-.2 0-.2.9-4.3 4.4-6.2h.2c.1 0 .1.1.2.1l.3.6c.1.1 0 .3-.1.4-3 1.7-3.8 5.3-3.8 5.4 0 0-.1.1-.3.1zm-.3-.7c.3-.9 1.3-3.7 3.8-5.3v-.1c-2.6 1.6-3.6 4.5-3.8 5.4z" class="st2"/></svg>