<svg xmlns="http://www.w3.org/2000/svg" version="1.0" viewBox="0 0 50 50"><path fill="#FCC34F" d="M46.847 22.019L14.674 33.726 3.86 26.88a.4.4 0 01-.189-.328.41.41 0 01.18-.35c.153-.094.337-.215.449-.292l.004-.628-.409-.251.768-.498-.579-.377.337-.18c3.807-2.051 10.028-4.224 14.513-5.068 5.252-4.381 9.391-6.59 13.018-6.958l.076-.004 14.495 9.018-.144.148.144.144v.53l.233.148a.265.265 0 01.091.085z"/><path fill="#FDCF72" d="M36.338 14.625L3.676 26.512a.396.396 0 01.175-.31c.153-.094.337-.215.449-.292l.004-.628-.409-.251.768-.498-.579-.377.337-.18c3.807-2.051 10.028-4.224 14.513-5.068 5.252-4.381 9.391-6.59 13.018-6.958l.076-.004 4.31 2.679z"/><g fill="#031326"><path d="M22.312 31.975a.122.122 0 00.172-.039.124.124 0 00-.039-.172l-.685-.434c2.803-1.171 6.456-2.398 9.322-3.098a.125.125 0 00.092-.15c-.016-.067-.084-.112-.15-.092-2.932.715-6.685 1.981-9.52 3.177l-2.02-1.278c.293-.122.589-.244.899-.366l1.436.9c1.095-.458 2.273-.823 3.401-1.136l-1.513-.98c1.757-.596 3.543-1.133 5.098-1.513a.125.125 0 00-.058-.242c-1.616.394-3.481.959-5.306 1.582l-1.283-.831c-1.183.299-2.256.734-3.393 1.207l1.355.849c-.309.124-.601.246-.892.369l-2.021-1.278a68.25 68.25 0 015.004-1.845l1.818 1.139.12-.05c.918-.384 1.99-.742 3.371-1.126l.534-.149-1.608-1.042.085-.021a.126.126 0 00.092-.151.125.125 0 00-.15-.092l-.313.078-1.724-1.117-.106.027c-.614.156-1.202.35-1.791.568l-.314-.204c.702-.202 1.39-.392 2.031-.549a.126.126 0 00.092-.151.125.125 0 00-.151-.092 52.97 52.97 0 00-2.249.612l-1.444-.936c-1.183.299-2.401.643-3.538 1.116l1.496.937a63.757 63.757 0 00-3.782 1.448l-2.019-1.277c2.801-1.17 6.45-2.396 9.32-3.097a.126.126 0 00.092-.151.123.123 0 00-.151-.092c-2.936.717-6.685 1.982-9.518 3.177l-2.051-1.298a60.048 60.048 0 011.585-.635l1.576.988c1.095-.458 2.273-.823 3.401-1.136L15.3 22.282a60.012 60.012 0 014.38-1.269.126.126 0 00.092-.151.123.123 0 00-.151-.092 61.863 61.863 0 00-4.589 1.339l-1.18-.765a24.862 24.862 0 00-3.482 1.152l1.304.817a55.41 55.41 0 00-1.578.637l-1.117-.706a.124.124 0 00-.172.039.124.124 0 00.039.172l.97.614a35.02 35.02 0 00-1.524.69.125.125 0 00.11.224 35.312 35.312 0 011.671-.752l2.051 1.298c-.547.235-1.069.467-1.524.69a.125.125 0 00-.058.167.123.123 0 00.167.057c.496-.243 1.07-.496 1.672-.752l2.019 1.277a35.64 35.64 0 00-1.525.69.125.125 0 00-.058.167.123.123 0 00.167.057c.496-.243 1.07-.496 1.672-.752l2.015 1.275a34.64 34.64 0 00-1.52.692.125.125 0 00-.058.167.123.123 0 00.167.057c.492-.24 1.057-.494 1.668-.754l2.022 1.279c-.546.235-1.068.467-1.524.69a.125.125 0 00-.058.167.123.123 0 00.167.057 36.359 36.359 0 011.671-.752l2.02 1.278c-.539.231-1.053.46-1.503.68a.125.125 0 00-.058.167.123.123 0 00.167.057c.491-.239 1.057-.49 1.651-.742l.829.527zm2.032-7.365l2.508 1.625a27.22 27.22 0 00-2.778.946l-2.162-1.355c.552-.18 1.107-.344 1.651-.495l-.497-.322c.421-.147.843-.285 1.278-.399zm-9.412 2.401a65.7 65.7 0 013.798-1.439l1.431.897c.374-.156.765-.289 1.153-.425l.619.388a68.005 68.005 0 00-4.986 1.855l-2.015-1.276zm27.703-6.41c-2.773 1.014-5.594 2.853-8.299 4.784l-2.129-1.347c2.923-2.205 5.628-3.653 8.227-4.402.066-.019.105-.088.086-.155s-.095-.105-.154-.085c-2.653.765-5.408 2.242-8.386 4.499l-1.971-1.247c.131-.092.263-.185.393-.274l1.694 1.061.136-.099c.015-.01 1.281-1.088 2.706-1.731l.418-.188-1.699-1.096a33.669 33.669 0 011.896-1.007l1.511.947s2.209-1.071 3.336-1.384l-3.063-1.985c-1.183.299-3.474 1.364-3.474 1.364l1.442.903c-.616.305-1.243.638-1.886 1.008l-1.289-.832-.106.027c-1.227.31-2.89 1.731-2.96 1.792l-.257.221 1.365.855-.392.273-2.111-1.335c2.733-2.022 5.435-3.475 8.219-4.413a.126.126 0 00-.08-.238c-2.836.956-5.586 2.438-8.367 4.506l-2.031-1.285a47.23 47.23 0 012.137-1.486l.305.191s1.645-1.231 2.733-1.748l-.188-.122c1.148-.582 2.209-.998 3.206-1.257a.125.125 0 00.09-.152.127.127 0 00-.152-.09c-1.049.272-2.17.72-3.382 1.344l-1.965-1.274c1.058-.547 2.11-1.007 3.111-1.293a.125.125 0 10-.068-.24c-1.058.302-2.169.793-3.284 1.376l-.429-.278c-1.183.299-2.87 1.728-2.87 1.728l.405.254c-.738.48-1.454.976-2.142 1.468l-.685-.434a.125.125 0 00-.172.039.124.124 0 00.039.172l.599.379c-.391.282-.773.561-1.14.832a.125.125 0 00.075.226.126.126 0 00.074-.024c.391-.29.801-.588 1.22-.889l2.049 1.296c-.367.274-.736.55-1.12.849a.124.124 0 00.077.223.13.13 0 00.077-.026c.408-.318.802-.614 1.192-.904l2.029 1.284c-.369.279-.739.565-1.11.864a.126.126 0 00-.02.176c.025.03.062.046.098.046a.12.12 0 00.078-.028 40.54 40.54 0 011.178-.917l2.106 1.332c-.373.265-.751.538-1.144.831a.125.125 0 10.149.2c.422-.314.826-.604 1.225-.886l1.985 1.255a43.11 43.11 0 00-1.099.866.125.125 0 10.158.194c.393-.32.78-.623 1.165-.917l2.121 1.341c-.385.276-.767.553-1.147.83a.123.123 0 00-.027.174.123.123 0 00.174.028c.406-.296.816-.592 1.228-.887l.981.62c.021.014.043.02.066.02a.123.123 0 00.105-.059.124.124 0 00-.039-.172l-.893-.565c2.666-1.898 5.44-3.7 8.157-4.694a.125.125 0 00.074-.16c-.03-.064-.099-.098-.165-.073zm-10.593-.726l2.28 1.468c-1.062.525-1.9 1.248-2.247 1.491l-2.422-1.518c.488-.39 1.559-1.19 2.389-1.441zm-8.899-1.57c.692-.493 1.41-.987 2.149-1.466l2.023 1.267c-.682.451-1.387.939-2.13 1.489l-2.042-1.29z"/><path d="M48.628 20.982l-.001-.862-15.668-9.75-.44-.217-.424.043c-4.402.443-8.85 2.621-13.975 6.847-4.79.966-11.159 3.663-15.131 5.805L.784 24.036l.754.491-.844.548 1.026.631a1.672 1.672 0 00-.377 1.099 1.64 1.64 0 00.771 1.367l17.769 11.409a1.669 1.669 0 001.72.052l10.058-5.618a1.248 1.248 0 00.481-1.7 1.247 1.247 0 00-1.7-.481l-9.626 5.376L4.524 26.75l.115-.078 15.745 9.98.124.079 13.941-7.578.041.026.119-.113 11.52-6.662a1.251 1.251 0 001.529 1.954l.814-.491c.506-.293.817-.817.833-1.411.011-.54-.232-1.137-.677-1.474zM5.734 24.244c3.974-1.973 9.341-4.086 13.169-4.806l.125-.024L33.733 28.7c-4.622 1.227-8.32 2.688-12.912 5.107L5.734 24.244zm28.663 4.278l-.006.002-12.853-8.116-2.019-1.275c4.576-3.807 8.643-5.906 12.489-6.408l13.322 8.289c-4.06 2.003-7.629 4.466-10.881 7.517-.018-.001-.034-.013-.052-.009zm-29.62-2.354l.003-.524.022-.015 1.935 1.227a.248.248 0 00.345-.077.25.25 0 00-.077-.345l-1.928-1.222.618-.401 14.982 9.496.123.078.128-.068c3.75-1.982 6.89-3.32 10.414-4.412-4.053 1.722-8.132 3.541-10.818 5.097l-2.479-1.57a.25.25 0 10-.268.422l2.736 1.734.131-.077c2.284-1.339 5.657-2.888 9.163-4.404l-9.28 5.044-15.75-9.983zm40.912-4.088l-9.237 5.341a43.968 43.968 0 019.1-5.955l.136.074v.54z"/></g></svg>