<?xml version="1.0" encoding="UTF-8" standalone="no"?>
<svg
   width="24"
   height="30"
   viewBox="0 0 6.3500004 7.9375"
   version="1.1"
   id="svg8"
   inkscape:version="1.1.2 (b8e25be833, 2022-02-05)"
   sodipodi:docname="favicon.svg"
   xmlns:inkscape="http://www.inkscape.org/namespaces/inkscape"
   xmlns:sodipodi="http://sodipodi.sourceforge.net/DTD/sodipodi-0.dtd"
   xmlns="http://www.w3.org/2000/svg"
   xmlns:svg="http://www.w3.org/2000/svg"
   xmlns:rdf="http://www.w3.org/1999/02/22-rdf-syntax-ns#"
   xmlns:cc="http://creativecommons.org/ns#"
   xmlns:dc="http://purl.org/dc/elements/1.1/">
  <defs
     id="defs2" />
  <sodipodi:namedview
     id="base"
     pagecolor="#ffffff"
     bordercolor="#666666"
     borderopacity="1.0"
     inkscape:pageopacity="0.0"
     inkscape:pageshadow="2"
     inkscape:zoom="9.7469872"
     inkscape:cx="36.421511"
     inkscape:cy="27.64957"
     inkscape:document-units="cm"
     inkscape:current-layer="g36777"
     inkscape:document-rotation="0"
     showgrid="false"
     units="px"
     inkscape:pagecheckerboard="true"
     inkscape:showpageshadow="false"
     width="1000px"
     showborder="true"
     inkscape:window-width="1920"
     inkscape:window-height="1017"
     inkscape:window-x="-8"
     inkscape:window-y="-8"
     inkscape:window-maximized="1" />
  <metadata
     id="metadata5">
    <rdf:RDF>
      <cc:Work
         rdf:about="">
        <dc:format>image/svg+xml</dc:format>
        <dc:type
           rdf:resource="http://purl.org/dc/dcmitype/StillImage" />
      </cc:Work>
    </rdf:RDF>
  </metadata>
  <g
     inkscape:label="Layer 1"
     inkscape:groupmode="layer"
     id="layer1">
    <g
       id="g36777"
       transform="matrix(0.75177557,0,0,0.75177557,-0.99813918,0.65206261)"
       style="stroke-width:1.33018">
      <path
         id="path45860"
         style="font-weight:bold;font-size:7.05556px;line-height:1.25;font-family:Mulish;-inkscape-font-specification:'Mulish Bold';text-align:center;text-anchor:middle;display:inline;fill:#000000;fill-opacity:1;stroke-width:0.351943"
         d="m 6.3620305,-0.70102541 c -1.034391,0 -1.922528,0.2111666 -2.665408,0.6343264 -0.733477,0.413756 -1.298309,1.0018222 -1.693257,1.76350871 -0.394949,0.7616865 -0.591968,1.6639709 -0.591968,2.7077639 0,1.0437946 0.197018,1.9511376 0.591968,2.7222286 0.394948,0.761686 0.95978,1.354813 1.693257,1.777972 0.74288,0.413756 1.631017,0.619862 2.665408,0.619862 0.695863,0 1.321307,-0.103056 1.876116,-0.309932 0.564213,-0.206878 1.048192,-0.498895 1.452544,-0.875038 l -0.591968,-1.438079 c -0.441967,0.366737 -0.870392,0.629428 -1.284148,0.789291 -0.404352,0.150459 -0.869125,0.226248 -1.395723,0.226248 -1.00618,0 -1.777117,-0.306165 -2.31312,-0.917396 -0.350167,-0.406443 -0.584157,-0.924879 -0.701478,-1.5558543 h 4.177873 V 3.3797356 h -4.179938 c 0.116553,-0.6345053 0.351084,-1.1530443 0.703543,-1.5558544 0.536003,-0.6112309 1.30694,-0.91739641 2.31312,-0.91739641 0.526598,0 0.991371,0.079821 1.395723,0.23967881 0.413756,0.1504586 0.842181,0.4050975 1.284148,0.7624319 l 0.591968,-1.43911411 c -0.404352,-0.3855444 -0.888331,-0.6775643 -1.452544,-0.8750392 -0.554809,-0.1974733 -1.180253,-0.2954676 -1.876116,-0.2954676 z" />
    </g>
  </g>
</svg>
