<?xml version="1.0" encoding="UTF-8" standalone="no"?>
<svg
   width="32"
   height="40"
   viewBox="0 0 8.4666672 10.583333"
   version="1.1"
   id="svg8"
   inkscape:version="1.1.2 (b8e25be833, 2022-02-05)"
   sodipodi:docname="favicon.svg"
   xmlns:inkscape="http://www.inkscape.org/namespaces/inkscape"
   xmlns:sodipodi="http://sodipodi.sourceforge.net/DTD/sodipodi-0.dtd"
   xmlns="http://www.w3.org/2000/svg"
   xmlns:svg="http://www.w3.org/2000/svg"
   xmlns:rdf="http://www.w3.org/1999/02/22-rdf-syntax-ns#"
   xmlns:cc="http://creativecommons.org/ns#"
   xmlns:dc="http://purl.org/dc/elements/1.1/">
  <defs
     id="defs2">
    <linearGradient
       id="linearGradient3204"
       inkscape:swatch="solid">
      <stop
         style="stop-color:#000000;stop-opacity:1;"
         offset="0"
         id="stop3202" />
    </linearGradient>
  </defs>
  <sodipodi:namedview
     id="base"
     pagecolor="#ffffff"
     bordercolor="#666666"
     borderopacity="1.0"
     inkscape:pageopacity="0.0"
     inkscape:pageshadow="2"
     inkscape:zoom="5.6568542"
     inkscape:cx="45.608387"
     inkscape:cy="51.88396"
     inkscape:document-units="cm"
     inkscape:current-layer="g36777"
     inkscape:document-rotation="0"
     showgrid="false"
     units="px"
     inkscape:pagecheckerboard="true"
     inkscape:showpageshadow="false"
     width="1000px"
     showborder="true"
     inkscape:window-width="1920"
     inkscape:window-height="1017"
     inkscape:window-x="-8"
     inkscape:window-y="-8"
     inkscape:window-maximized="1" />
  <metadata
     id="metadata5">
    <rdf:RDF>
      <cc:Work
         rdf:about="">
        <dc:format>image/svg+xml</dc:format>
        <dc:type
           rdf:resource="http://purl.org/dc/dcmitype/StillImage" />
      </cc:Work>
    </rdf:RDF>
  </metadata>
  <g
     inkscape:label="Layer 1"
     inkscape:groupmode="layer"
     id="layer1">
    <g
       id="g36777"
       transform="matrix(0.75177557,0,0,0.75177557,-0.99813918,0.65206261)"
       style="stroke-width:1.33018">
      <path
         id="path45860"
         style="font-weight:bold;font-size:7.05556px;line-height:1.25;font-family:Mulish;-inkscape-font-specification:'Mulish Bold';text-align:center;text-anchor:middle;display:inline;opacity:1;vector-effect:non-scaling-stroke;fill:#000000;fill-opacity:1;fill-rule:evenodd;stroke:none;stroke-width:0;stroke-miterlimit:4;stroke-dasharray:none;stroke-opacity:1;-inkscape-stroke:hairline"
         d="m 8.0574417,-0.75467444 c -1.401259,0 -2.604392,0.286061 -3.61075,0.859303 -0.99362,0.560503 -1.758781,1.35713904 -2.293806,2.38897414 -0.5350258,1.031835 -0.8019218,2.254132 -0.8019218,3.6681292 0,1.413998 0.266895,2.643149 0.8019218,3.687723 0.535025,1.0318341 1.300186,1.8353261 2.293806,2.4085671 1.006358,0.560503 2.209491,0.839709 3.61075,0.839709 0.942666,0 1.789936,-0.139606 2.5415203,-0.419856 0.764322,-0.280251 1.419955,-0.675838 1.967719,-1.185388 L 11.764758,9.5443629 c -0.598719,0.4968091 -1.179094,0.8526691 -1.739596,1.0692301 -0.5477653,0.203822 -1.1773793,0.306491 -1.8907463,0.306491 -1.363042,0 -2.407408,-0.414752 -3.133516,-1.2427701 -0.474361,-0.550596 -0.791341,-1.252906 -0.950272,-2.10767 h 5.659643 V 4.7734137 h -5.66244 c 0.157891,-0.859546 0.475603,-1.561996 0.953069,-2.107671 0.726108,-0.828017 1.770474,-1.2427701 3.133516,-1.2427701 0.713367,0 1.342981,0.1081311 1.8907463,0.3246861 0.560502,0.203821 1.140877,0.548773 1.739596,1.032844 l 0.801923,-1.94952614 c -0.547764,-0.522285 -1.203397,-0.917876 -1.967719,-1.18539 -0.7515843,-0.267511 -1.5988543,-0.400261 -2.5415203,-0.400261 z" />
    </g>
  </g>
</svg>
