<?xml version="1.0" encoding="UTF-8" standalone="no"?>
<svg
   width="173"
   height="23"
   viewBox="0 0 45.77292 6.0854165"
   version="1.1"
   id="svg8"
   inkscape:version="1.1.2 (b8e25be833, 2022-02-05)"
   sodipodi:docname="logo_euc.svg"
   xmlns:inkscape="http://www.inkscape.org/namespaces/inkscape"
   xmlns:sodipodi="http://sodipodi.sourceforge.net/DTD/sodipodi-0.dtd"
   xmlns="http://www.w3.org/2000/svg"
   xmlns:svg="http://www.w3.org/2000/svg"
   xmlns:rdf="http://www.w3.org/1999/02/22-rdf-syntax-ns#"
   xmlns:cc="http://creativecommons.org/ns#"
   xmlns:dc="http://purl.org/dc/elements/1.1/">
  <defs
     id="defs2">
    <inkscape:path-effect
       effect="spiro"
       id="path-effect4706"
       is_visible="true"
       lpeversion="1" />
    <inkscape:path-effect
       effect="spiro"
       id="path-effect4702"
       is_visible="true"
       lpeversion="1" />
    <inkscape:path-effect
       effect="spiro"
       id="path-effect4698"
       is_visible="true"
       lpeversion="1" />
    <inkscape:path-effect
       effect="spiro"
       id="path-effect4501"
       is_visible="true"
       lpeversion="1" />
    <inkscape:path-effect
       effect="bspline"
       id="path-effect4186"
       is_visible="true"
       lpeversion="1"
       weight="33.333333"
       steps="2"
       helper_size="0"
       apply_no_weight="true"
       apply_with_weight="true"
       only_selected="false" />
    <inkscape:path-effect
       effect="bspline"
       id="path-effect4182"
       is_visible="true"
       lpeversion="1"
       weight="33.333333"
       steps="2"
       helper_size="0"
       apply_no_weight="true"
       apply_with_weight="true"
       only_selected="false" />
    <inkscape:path-effect
       effect="spiro"
       id="path-effect3477"
       is_visible="true"
       lpeversion="1" />
    <inkscape:path-effect
       effect="spiro"
       id="path-effect2539"
       is_visible="true"
       lpeversion="1" />
    <inkscape:path-effect
       effect="spiro"
       id="path-effect861"
       is_visible="true"
       lpeversion="1" />
    <linearGradient
       id="linearGradient3204"
       inkscape:swatch="solid">
      <stop
         style="stop-color:#000000;stop-opacity:1;"
         offset="0"
         id="stop3202" />
    </linearGradient>
  </defs>
  <sodipodi:namedview
     id="base"
     pagecolor="#ffffff"
     bordercolor="#666666"
     borderopacity="1.0"
     inkscape:pageopacity="0.0"
     inkscape:pageshadow="2"
     inkscape:zoom="5.6568543"
     inkscape:cx="88.565124"
     inkscape:cy="9.4575532"
     inkscape:document-units="cm"
     inkscape:current-layer="layer1"
     inkscape:document-rotation="0"
     showgrid="false"
     units="px"
     inkscape:pagecheckerboard="true"
     inkscape:showpageshadow="false"
     width="1000px"
     showborder="true"
     inkscape:window-width="1920"
     inkscape:window-height="1017"
     inkscape:window-x="-8"
     inkscape:window-y="-8"
     inkscape:window-maximized="1" />
  <metadata
     id="metadata5">
    <rdf:RDF>
      <cc:Work
         rdf:about="">
        <dc:format>image/svg+xml</dc:format>
        <dc:type
           rdf:resource="http://purl.org/dc/dcmitype/StillImage" />
      </cc:Work>
    </rdf:RDF>
  </metadata>
  <g
     inkscape:groupmode="layer"
     id="layer2"
     inkscape:label="Layer 1"
     style="display:inline;stroke-width:1.76938"
     transform="matrix(0.75177557,0,0,0.75177557,-8.2293392,6.9106039)">
    <g
       id="g11265"
       style="display:inline;stroke-width:0.713765"
       transform="matrix(1.7642922,0,0,1.9685085,13.131237,-14.822821)" />
  </g>
  <g
     inkscape:label="ubuntu mono normal 24"
     inkscape:groupmode="layer"
     id="layer1"
     style="display:inline">
    <g
       aria-label="9"
       transform="matrix(-0.75177557,0,0,0.75177557,-8.2293392,6.9106039)"
       id="text14152"
       style="font-size:13.1393px;line-height:1.25;font-family:'Ubuntu Mono';-inkscape-font-specification:'Ubuntu Mono';text-align:center;text-anchor:middle;stroke-width:0.46815" />
    <g
       id="g10340"
       style="fill:#264653;fill-opacity:1">
      <g
         aria-label="uclides 81"
         id="text1207"
         style="font-style:italic;font-weight:bold;font-size:8.46665px;line-height:0;-inkscape-font-specification:'sans-serif Bold Italic';text-align:center;text-anchor:middle;display:inline;fill:#264653;stroke-width:0.351944;fill-opacity:1">
        <path
           d="m 7.5967991,5.8652839 q -0.2285995,0.059267 -0.6095988,0.1269998 -0.3725326,0.067733 -0.8805316,0.067733 -0.4487324,0 -0.7450652,-0.1269998 Q 5.0652708,5.7975507 4.8790045,5.5604845 4.6927382,5.3149517 4.6165383,4.9847523 4.5403385,4.654553 4.5403385,4.2566204 V 2.0468248 h 0.6942653 v 2.0573959 q 0,0.7281319 0.2116662,1.0329313 0.2201329,0.3047994 0.7281319,0.3047994 0.1100665,0 0.2201329,-0.00847 0.1185331,-0.00847 0.2201329,-0.016933 0.1015998,-0.016933 0.1777997,-0.0254 0.0762,-0.016933 0.1015998,-0.0254 V 2.0468248 h 0.7027319 z"
           style="font-style:normal;font-weight:normal;font-family:'Ubuntu Mono';-inkscape-font-specification:'Ubuntu Mono';fill:#264653;fill-opacity:1"
           id="path7196" />
        <path
           d="m 8.6127971,4.0195542 q 0,-0.5333989 0.169333,-0.9228648 Q 8.9514631,2.7072235 9.2477959,2.453224 9.5441286,2.1992245 9.9335945,2.0806914 10.331527,1.9536916 10.78026,1.9536916 q 0.287866,0 0.567265,0.042333 0.287866,0.033867 0.609599,0.1354664 l -0.160866,0.6011321 q -0.2794,-0.1015998 -0.516466,-0.1269997 -0.2286,-0.033867 -0.465666,-0.033867 -0.304799,0 -0.575732,0.084666 -0.2709329,0.0762 -0.4741325,0.2539995 -0.1947329,0.169333 -0.313266,0.4487324 -0.1185331,0.2709328 -0.1185331,0.6603987 0,0.3725326 0.1100664,0.6434654 0.1100665,0.2624662 0.3047994,0.4402658 0.2031996,0.169333 0.4825988,0.2539995 0.2794,0.084666 0.618066,0.084666 0.270933,0 0.516465,-0.0254 0.254,-0.033867 0.550333,-0.1354664 l 0.101599,0.5841988 q -0.296332,0.1100665 -0.601132,0.1523997 -0.304799,0.0508 -0.660398,0.0508 -0.474133,0 -0.8720654,-0.1269997 Q 9.4933287,5.8060174 9.2054626,5.5520179 8.9260632,5.2980184 8.7651968,4.9170191 8.6127971,4.5275532 8.6127971,4.0195542 Z"
           style="font-style:normal;font-weight:normal;font-family:'Ubuntu Mono';-inkscape-font-specification:'Ubuntu Mono';fill:#264653;fill-opacity:1"
           id="path7198" />
        <path
           d="m 15.292984,6.0684835 q -0.372533,0 -0.618065,-0.1015998 Q 14.429386,5.8652839 14.285453,5.6620843 14.14152,5.4588847 14.082253,5.162552 14.022986,4.8577526 14.022986,4.45982 V 0.74296067 h -1.134531 v -0.5926655 h 1.828797 V 4.45982 q 0,0.2963328 0.03387,0.4825991 0.04233,0.1862663 0.118533,0.3047994 0.08467,0.1100664 0.2032,0.1523997 0.118533,0.042333 0.2794,0.042333 0.245532,0 0.457199,-0.059266 0.211666,-0.059267 0.330199,-0.1269998 l 0.1016,0.5926655 q -0.0508,0.0254 -0.143933,0.067733 -0.09313,0.033867 -0.220133,0.067733 -0.127,0.033867 -0.2794,0.059267 -0.143933,0.0254 -0.304799,0.0254 z"
           style="font-style:normal;font-weight:normal;font-family:'Ubuntu Mono';-inkscape-font-specification:'Ubuntu Mono';fill:#264653;fill-opacity:1"
           id="path7200" />
        <path
           d="m 18.434111,1.437226 q -0.220133,0 -0.380999,-0.1523997 -0.160866,-0.1523997 -0.160866,-0.41486588 0,-0.26246615 0.160866,-0.41486585 0.160866,-0.1523997 0.380999,-0.1523997 0.2286,0 0.380999,0.1523997 0.160867,0.1523997 0.160867,0.41486585 0,0.26246618 -0.160867,0.41486588 Q 18.662711,1.437226 18.434111,1.437226 Z M 18.256312,2.6310236 H 17.12178 V 2.0468248 h 1.828797 V 4.45982 q 0,0.5841989 0.160866,0.7873985 0.160867,0.1947329 0.482599,0.1947329 0.245533,0 0.448733,-0.059266 0.211666,-0.059267 0.330199,-0.1269998 l 0.1016,0.5926655 q -0.0508,0.0254 -0.143933,0.067733 -0.09313,0.033867 -0.220133,0.067733 -0.118533,0.033867 -0.270933,0.059267 -0.143933,0.0254 -0.304799,0.0254 -0.372533,0 -0.618066,-0.1015998 Q 18.671177,5.8652839 18.518778,5.6620843 18.374845,5.4588847 18.315578,5.162552 18.256312,4.8577526 18.256312,4.45982 Z"
           style="font-style:normal;font-weight:normal;font-family:'Ubuntu Mono';-inkscape-font-specification:'Ubuntu Mono';fill:#264653;fill-opacity:1"
           id="path7202" />
        <path
           d="M 23.827367,2.8765565 Q 23.708834,2.76649 23.480235,2.6733569 q -0.2286,-0.1015998 -0.474133,-0.1015998 -0.279399,0 -0.482599,0.1100664 Q 22.32877,2.79189 22.20177,2.9866229 22.074771,3.1728892 22.015504,3.443822 q -0.05927,0.2624662 -0.05927,0.5672656 0,0.6857986 0.321732,1.0583312 0.321733,0.3725326 0.838199,0.3725326 0.262466,0 0.440265,-0.0254 0.186267,-0.0254 0.270933,-0.0508 z m 0,-2.65006148 0.702732,-0.1185331 V 5.8652839 Q 24.3015,5.9330171 23.9459,6.0007503 q -0.355599,0.067733 -0.829731,0.067733 -0.423333,0 -0.770466,-0.143933 Q 21.998571,5.7806174 21.753038,5.5181513 21.507505,5.2472185 21.372039,4.8662192 21.236572,4.48522 21.236572,4.0110876 q 0,-0.4571991 0.110067,-0.8297317 0.118533,-0.3809993 0.338666,-0.6519321 0.220133,-0.2709328 0.524932,-0.4233325 0.313266,-0.1523997 0.711199,-0.1523997 0.313266,0 0.550332,0.0762 0.237066,0.0762 0.355599,0.1608663 z"
           style="font-style:normal;font-weight:normal;font-family:'Ubuntu Mono';-inkscape-font-specification:'Ubuntu Mono';fill:#264653;fill-opacity:1"
           id="path7204" />
        <path
           d="m 27.324095,1.9536916 q 0.795865,0 1.227664,0.4995324 0.431799,0.4910657 0.431799,1.498597 V 4.1973539 H 26.17263 q 0.04233,0.6095988 0.397933,0.9313315 0.364066,0.313266 1.015998,0.313266 0.372532,0 0.634999,-0.059266 0.262466,-0.059267 0.397932,-0.1269998 l 0.09313,0.5926655 q -0.127,0.067733 -0.457199,0.1439331 -0.330199,0.0762 -0.745065,0.0762 -0.507999,0 -0.897465,-0.1523997 -0.380999,-0.1608663 -0.634999,-0.4317991 -0.253999,-0.2709328 -0.380999,-0.6434654 -0.127,-0.3809993 -0.127,-0.8212651 0,-0.5249323 0.160867,-0.9143982 0.160866,-0.3894659 0.423332,-0.6434654 0.262466,-0.2539995 0.592666,-0.3809992 0.330199,-0.1269998 0.677332,-0.1269998 z m 0.948264,1.6763967 q 0,-0.4995323 -0.262466,-0.7873984 -0.262466,-0.2963328 -0.694265,-0.2963328 -0.245533,0 -0.448732,0.093133 -0.194733,0.093133 -0.338666,0.2455328 -0.143934,0.1523997 -0.2286,0.3471327 -0.08467,0.1947329 -0.110066,0.3979325 z"
           style="font-style:normal;font-weight:normal;font-family:'Ubuntu Mono';-inkscape-font-specification:'Ubuntu Mono';fill:#264653;fill-opacity:1"
           id="path7206" />
        <path
           d="m 32.33635,4.993219 q 0,-0.2116663 -0.177799,-0.3471327 Q 31.989218,4.5106199 31.726752,4.4090201 31.472752,4.3074203 31.167953,4.2142872 30.863153,4.1126874 30.600687,3.9687543 30.346688,3.8248213 30.168888,3.613155 29.999555,3.4014888 29.999555,3.0628228 q 0,-0.4741324 0.380999,-0.7873985 0.389466,-0.3217327 1.210731,-0.3217327 0.321733,0 0.660399,0.0508 0.347133,0.042333 0.592665,0.1185331 L 32.71735,2.7495567 q -0.06773,-0.033867 -0.186267,-0.067733 -0.118533,-0.042333 -0.270932,-0.067733 -0.1524,-0.033867 -0.3302,-0.0508 -0.169333,-0.016933 -0.330199,-0.016933 -0.914398,0 -0.914398,0.4995324 0,0.1777996 0.169333,0.3047994 0.177799,0.1185331 0.440266,0.2201329 0.262466,0.1015998 0.567265,0.2116662 0.304799,0.1015998 0.567266,0.2539995 0.262466,0.1523997 0.431799,0.3725326 0.177799,0.2116663 0.177799,0.5418656 0,0.533399 -0.414865,0.8297317 -0.414866,0.2878661 -1.312331,0.2878661 -0.406399,0 -0.745065,-0.067733 -0.338666,-0.067733 -0.643466,-0.2031996 L 30.058822,5.162552 q 0.296332,0.1354664 0.618065,0.2285995 0.330199,0.084666 0.702732,0.084666 0.956731,0 0.956731,-0.482599 z"
           style="font-style:normal;font-weight:normal;font-family:'Ubuntu Mono';-inkscape-font-specification:'Ubuntu Mono';fill:#264653;fill-opacity:1"
           id="path7208" />
        <path
           d="m 41.632732,4.6122197 q 0,0.6603987 -0.423332,1.0667979 -0.414866,0.4063992 -1.269998,0.4063992 -0.491066,0 -0.812798,-0.1269997 -0.321733,-0.1354664 -0.516466,-0.338666 -0.186266,-0.2116663 -0.270933,-0.4656658 -0.0762,-0.2539995 -0.0762,-0.4995323 0,-0.4487325 0.245533,-0.7958651 0.245533,-0.3471327 0.584199,-0.5587989 -0.719665,-0.4063992 -0.719665,-1.2445976 0,-0.2878661 0.110066,-0.5503322 0.110067,-0.2624662 0.313266,-0.4571991 0.2032,-0.19473298 0.491066,-0.31326608 0.296333,-0.1185331 0.660399,-0.1185331 0.423332,0 0.719665,0.12699975 0.304799,0.12699975 0.491066,0.33019933 0.186266,0.194733 0.270933,0.4402658 0.08467,0.2370662 0.08467,0.4656658 0,0.4487324 -0.228599,0.7789318 -0.2286,0.3217327 -0.524933,0.5164656 0.872065,0.4148659 0.872065,1.3377307 z m -2.692395,0.0508 q 0,0.1354664 0.0508,0.2878661 0.0508,0.1439331 0.169333,0.2709328 0.118533,0.1269998 0.313266,0.2116663 0.194733,0.0762 0.474133,0.0762 0.262466,0 0.448732,-0.067733 0.194733,-0.0762 0.313266,-0.1947329 0.127,-0.1269998 0.186267,-0.2793995 0.05927,-0.1523997 0.05927,-0.3047994 0,-0.482599 -0.347132,-0.7365985 Q 40.261135,3.6639549 39.651536,3.5284885 39.31287,3.7147548 39.126604,3.9941543 38.940337,4.2735537 38.940337,4.6630196 Z m 1.89653,-2.683928 q 0,-0.1100665 -0.0508,-0.2455329 -0.0508,-0.143933 -0.160866,-0.2539995 -0.1016,-0.1185331 -0.270933,-0.1947329 -0.169333,-0.084666 -0.406399,-0.084666 -0.245533,0 -0.414866,0.0762 -0.160866,0.0762 -0.270933,0.194733 -0.110066,0.1100664 -0.160866,0.2539995 -0.04233,0.1354664 -0.04233,0.2709328 0,0.3471326 0.245532,0.651932 0.254,0.2963328 0.829732,0.4317992 0.321733,-0.1862663 0.507999,-0.4402658 0.194733,-0.2539995 0.194733,-0.6603987 z"
           style="font-style:normal;font-weight:normal;font-family:'Ubuntu Mono';-inkscape-font-specification:'Ubuntu Mono';fill:#264653;fill-opacity:1"
           id="path7210" />
        <path
           d="m 42.699531,1.8182252 q 0.431799,-0.169333 0.838198,-0.4233325 0.4064,-0.2624661 0.753532,-0.66039868 h 0.491066 V 5.3826849 h 0.990598 V 5.9753504 H 42.953531 V 5.3826849 h 1.134531 V 1.7081588 q -0.09313,0.084666 -0.2286,0.1777996 -0.127,0.084666 -0.287866,0.169333 -0.1524,0.084666 -0.321733,0.1608664 -0.169333,0.0762 -0.330199,0.1269997 z"
           style="font-style:normal;font-weight:normal;font-family:'Ubuntu Mono';-inkscape-font-specification:'Ubuntu Mono';fill:#264653;fill-opacity:1"
           id="path7212" />
      </g>
      <g
         aria-label="9"
         transform="scale(-1,1)"
         id="text2847"
         style="font-style:italic;font-weight:bold;font-size:8.46665px;line-height:0;-inkscape-font-specification:'sans-serif Bold Italic';text-align:center;text-anchor:middle;display:inline;fill:#264653;stroke-width:0.351944;fill-opacity:1">
        <path
           d="m 5.2165985e-7,2.9273562 q 0,1.5663303 -0.76199850165985,2.3621954 Q -1.5239965,6.07695 -3.0564601,6.0854167 l -0.0254,-0.5926655 q 0.9482648,0 1.523997,-0.3725326 0.58419887,-0.3809993 0.77046517,-1.3038641 -0.2031996,0.093133 -0.44873247,0.1523997 -0.2455328,0.0508 -0.5164656,0.0508 -0.4487325,0 -0.7535319,-0.1269998 Q -2.8109273,3.7570879 -2.9971936,3.536955 -3.1834599,3.3083554 -3.2681264,3.0204893 q -0.084666,-0.2878661 -0.084666,-0.6095988 0,-0.2878661 0.093133,-0.5841988 0.093133,-0.3047994 0.2878661,-0.5503323 0.1947329,-0.2455328 0.4995323,-0.40639915 0.3047994,-0.16086635 0.7281319,-0.16086635 0.86359832,0 1.30386412,0.5926655 Q 5.2165985e-7,1.8944249 5.2165985e-7,2.9273562 Z M -1.6763962,3.4438218 q 0.2709328,0 0.4995324,-0.0508 0.23706617,-0.0508 0.45719907,-0.143933 0.008467,-0.084666 0.008467,-0.1608664 0,-0.0762 0,-0.1608663 0,-0.3301994 -0.0507999,-0.6265321 Q -0.80433123,2.0044913 -0.92286433,1.7843584 -1.0329308,1.5642255 -1.2361304,1.4372258 -1.4308633,1.3017594 -1.7356627,1.3017594 q -0.2539995,0 -0.4233325,0.1100664 -0.169333,0.1015998 -0.2793995,0.2624662 -0.1100664,0.1523997 -0.1608663,0.3471326 -0.042333,0.194733 -0.042333,0.3725326 0,0.5164657 0.2285996,0.7873985 0.2370662,0.2624661 0.7365985,0.2624661 z"
           style="font-style:normal;font-weight:normal;font-family:'Ubuntu Mono';-inkscape-font-specification:'Ubuntu Mono';fill:#264653;fill-opacity:1"
           id="path7193" />
      </g>
      <g
         aria-label="9"
         id="text6635"
         style="font-style:italic;font-weight:bold;font-size:8.46665px;line-height:0;-inkscape-font-specification:'sans-serif Bold Italic';text-align:center;text-anchor:middle;display:inline;fill:#264653;stroke-width:0.351944;fill-opacity:1">
        <path
           d="m 37.406551,2.9273562 q 0,1.5663303 -0.761999,2.3621954 Q 35.882554,6.07695 34.35009,6.0854167 l -0.0254,-0.5926655 q 0.948265,0 1.523997,-0.3725326 0.584199,-0.3809993 0.770465,-1.3038641 -0.203199,0.093133 -0.448732,0.1523997 -0.245533,0.0508 -0.516466,0.0508 -0.448732,0 -0.753532,-0.1269998 Q 34.595623,3.7570879 34.409357,3.536955 34.22309,3.3083554 34.138424,3.0204893 q -0.08467,-0.2878661 -0.08467,-0.6095988 0,-0.2878661 0.09313,-0.5841988 0.09313,-0.3047994 0.287866,-0.5503323 0.194733,-0.2455328 0.499532,-0.40639915 0.304799,-0.16086635 0.728132,-0.16086635 0.863598,0 1.303864,0.5926655 0.440266,0.5926655 0.440266,1.6255968 z m -1.676397,0.5164656 q 0.270933,0 0.499532,-0.0508 0.237067,-0.0508 0.4572,-0.143933 0.0085,-0.084666 0.0085,-0.1608664 0,-0.0762 0,-0.1608663 0,-0.3301994 -0.0508,-0.6265321 Q 36.602219,2.0044913 36.483686,1.7843584 36.37362,1.5642255 36.17042,1.4372258 35.975687,1.3017594 35.670888,1.3017594 q -0.254,0 -0.423333,0.1100664 -0.169333,0.1015998 -0.279399,0.2624662 -0.110067,0.1523997 -0.160867,0.3471326 -0.04233,0.194733 -0.04233,0.3725326 0,0.5164657 0.2286,0.7873985 0.237066,0.2624661 0.736598,0.2624661 z"
           style="font-style:normal;font-weight:normal;font-family:'Ubuntu Mono';-inkscape-font-specification:'Ubuntu Mono';fill:#264653;fill-opacity:1"
           id="path7215" />
      </g>
    </g>
    <g
       id="g10324">
      <ellipse
         style="display:inline;fill:#264653;fill-opacity:1;fill-rule:evenodd;stroke-width:5.29166;stop-color:#000000"
         id="path9040"
         cx="1.6808511"
         cy="2.6144121"
         rx="0.48498607"
         ry="0.57977474" />
      <ellipse
         style="display:inline;fill:#264653;fill-opacity:1;fill-rule:evenodd;stroke-width:5.29166;stop-color:#000000"
         id="ellipse6637"
         cx="-35.7257"
         cy="2.6144121"
         rx="0.48498607"
         ry="0.57977474"
         transform="scale(-1,1)" />
    </g>
  </g>
</svg>
